<svg xmlns="http://www.w3.org/2000/svg" version="1.1" xmlns:xlink="http://www.w3.org/1999/xlink" width="512" height="512" x="0" y="0" viewBox="0 0 100 100" style="enable-background:new 0 0 512 512" xml:space="preserve" class=""><g><path fill-rule="evenodd" d="M40.382 96.38C5.08 88.32 17.032 71.006 9.962 51.973c6.27-.585 13.97 16.722 12.636 8.714C14.489 28.732 46.354 30.393 38.414 2.5c31.26 4.28 19.704 32.686 33.948 41.035 3.969 1.009 9.036-1.845 1.276-17.18 33.67 39.604 9.792 71.395-20.506 71.144 31.964-9.626 5.287-37.458-8.837-47.11-.642 15.816 16.436 27.244 4.75 32.701.28-4.718.322-9.492-11.17-16.436 4.164 18.308-10.273 15.794 2.507 29.726" clip-rule="evenodd" fill="#e4e6eb" opacity="1" data-original="#000000" class=""></path></g></svg>