<svg xmlns="http://www.w3.org/2000/svg" version="1.1" xmlns:xlink="http://www.w3.org/1999/xlink" width="512" height="512" x="0" y="0" viewBox="0 0 100 100" style="enable-background:new 0 0 512 512" xml:space="preserve" class=""><g><path d="M84.656 64.844H95.5a2 2 0 0 1 2 2v21.75a8.906 8.906 0 0 1-8.906 8.906H11.406A8.906 8.906 0 0 1 2.5 88.594v-21.75a2 2 0 0 1 2-2h10.844a2 2 0 0 1 2 2v15.812h65.312V66.844a2 2 0 0 1 2-2m-56.615-22.76L48.258 69.89a2.157 2.157 0 0 0 3.484 0l20.217-27.808a1.554 1.554 0 0 0-1.257-2.464H58.906V4.5a2 2 0 0 0-2-2H43.094a2 2 0 0 0-2 2v35.14H29.298a1.554 1.554 0 0 0-1.257 2.443" fill="#e4e6eb" opacity="1" data-original="#000000"></path></g></svg>