<svg xmlns="http://www.w3.org/2000/svg" version="1.1" xmlns:xlink="http://www.w3.org/1999/xlink" width="512" height="512" x="0" y="0" viewBox="0 0 512 512" style="enable-background:new 0 0 512 512" xml:space="preserve" class=""><g><path d="M323.303 31H189.504c-5.361 0-10.313 2.856-12.993 7.5s-2.681 10.356 0 15L319.553 301h168.726L336.281 38.485A15.01 15.01 0 0 0 323.303 31M154.034 75.947 2.023 338.485a14.99 14.99 0 0 0-.22 14.648l64.805 120a14.99 14.99 0 0 0 12.979 7.866h.22a15.01 15.01 0 0 0 12.993-7.5l145.494-251.757zM509.88 338.31a14.99 14.99 0 0 0-12.876-7.31h-286.41l-86.678 150H432.2a15 15 0 0 0 13.198-7.866l64.805-120a15.03 15.03 0 0 0-.323-14.824" fill="#e4e6eb" opacity="1" data-original="#000000"></path></g></svg>