<svg xmlns="http://www.w3.org/2000/svg" version="1.1" xmlns:xlink="http://www.w3.org/1999/xlink" width="512" height="512" x="0" y="0" viewBox="0 0 24 24" style="enable-background:new 0 0 512 512" xml:space="preserve" class=""><g><path d="M19.25 0H4.75A2.75 2.75 0 0 0 2 2.75v18.5A2.75 2.75 0 0 0 4.75 24h14.5A2.75 2.75 0 0 0 22 21.25V2.75A2.75 2.75 0 0 0 19.25 0M5 8.75A.75.75 0 0 1 5.75 8h5.5a.75.75 0 0 1 .75.75v1a.75.75 0 0 1-1.5 0V9.5H9.25v4a.75.75 0 0 1 0 1.5h-1.5a.75.75 0 0 1 0-1.5v-4H6.5v.25a.75.75 0 0 1-1.5 0zM18.25 21H5.75a.75.75 0 0 1 0-1.5h12.5a.75.75 0 0 1 0 1.5m0-3H5.75a.75.75 0 0 1 0-1.5h12.5a.75.75 0 0 1 0 1.5m0-3h-3.5a.75.75 0 0 1 0-1.5h3.5a.75.75 0 0 1 0 1.5m0-2.75h-3.5a.75.75 0 0 1 0-1.5h3.5a.75.75 0 0 1 0 1.5m0-2.75h-3.5a.75.75 0 0 1 0-1.5h3.5a.75.75 0 0 1 0 1.5" fill="#e4e6eb" opacity="1" data-original="#000000" class=""></path></g></svg>